<?xml version="1.0" encoding="UTF-8" standalone="no"?>
<!-- Created with Inkscape (http://www.inkscape.org/) -->

<svg
   width="67.73333mm"
   height="67.733322mm"
   viewBox="0 0 67.73333 67.733322"
   version="1.1"
   id="svg1"
   xml:space="preserve"
   xmlns="http://www.w3.org/2000/svg"
   xmlns:svg="http://www.w3.org/2000/svg"><defs
     id="defs1" /><g
     id="layer1"
     transform="translate(624.87603,-165.0122)"><rect
       style="fill:none;stroke-width:0.321"
       id="rect33"
       width="67.73333"
       height="67.73333"
       x="-624.8761"
       y="165.01219" /><g
       id="g165"
       transform="matrix(0.75557591,0,0,0.75557591,-524.879,83.135493)"><g
         id="g67"
         transform="rotate(-7.5316576,104.16316,261.48686)"><g
           id="g66"
           transform="translate(30.047673,0.16760918)"><path
             id="path33"
             style="fill:#112b00;fill-opacity:1;stroke:none;stroke-width:0.354153"
             d="m -99.780361,164.76778 c -2.562489,-0.0785 -4.877819,1.64376 -4.940669,3.77085 -0.24038,2.22217 2.07674,4.46224 4.79307,4.62587 2.703092,0.31348 5.295677,-1.48946 5.352833,-3.73244 0.24092,-2.22268 -2.077484,-4.46107 -4.79307,-4.62588 -0.136744,-0.008 -0.276265,-0.0517 -0.412165,-0.0383 z" /><ellipse
             style="fill:#225500;fill-opacity:1;stroke:none;stroke-width:0.354349"
             id="ellipse37"
             cx="-102.24189"
             cy="171.70181"
             rx="4.4638524"
             ry="3.6885421"
             transform="matrix(0.99947009,0.03255053,0.01450909,0.99989474,0,0)" /><ellipse
             style="fill:#112b00;fill-opacity:1;stroke:none;stroke-width:0.357436"
             id="ellipse38"
             cx="-77.65596"
             cy="179.74591"
             transform="rotate(7.5316579)"
             rx="2.9756117"
             ry="2.2507143" /><g
             id="g64"
             transform="matrix(0.74169231,0.00835313,-0.01126154,0.99993659,-15.22134,-12.541739)"><path
               id="path51"
               style="fill:#9e592b;fill-opacity:1;stroke:none;stroke-width:0.321"
               d="m -109.35518,163.27593 c -2.04954,-0.27664 -3.81207,1.23021 -4.88654,2.82642 -2.06084,3.02552 -2.88291,6.81285 -2.61661,10.43952 0.21532,2.03021 -0.4429,3.93437 1.25623,5.22786 1.36073,1.12472 5.48713,1.32212 6.74937,0.21564 2.09883,-1.6822 2.38275,-4.49412 3.01734,-7.04937 0.70768,-3.00509 0.80105,-6.32975 -0.54788,-9.17163 -0.60302,-1.19473 -1.61257,-2.24255 -2.97191,-2.48844 z" /><path
               id="path64"
               style="fill:#d88c5a;stroke-width:0.321"
               transform="rotate(10.729457)"
               d="m -71.92598,189.89742 c -2e-6,5.18306 -0.697476,9.16626 -4.791769,9.65349 -4.403446,0.52402 -5.335615,-4.46214 -5.329049,-9.65349 0.0066,-5.18361 2.265622,-9.38476 5.060409,-9.38476 2.794787,0 5.06041,4.2017 5.060409,9.38476 z" /></g></g></g><g
         id="g71"
         transform="matrix(-0.79235298,0.1262709,0.09182561,0.852788,-169.66876,35.619208)"><g
           id="g69"
           transform="matrix(0.74173935,0,0,1,-19.086973,-11.386133)"><path
             id="path67"
             style="fill:#9e592b;fill-opacity:1;stroke:none;stroke-width:0.321"
             d="m -109.35518,163.27593 c -2.04954,-0.27664 -3.81207,1.23021 -4.88654,2.82642 -2.06084,3.02552 -2.88291,6.81285 -2.61661,10.43952 0.21532,2.03021 0.78293,4.27354 2.48206,5.56703 1.36073,1.12472 3.41155,0.77576 4.67379,-0.33072 2.09883,-1.6822 3.2325,-4.28693 3.86709,-6.84218 0.70768,-3.00509 0.80105,-6.32975 -0.54788,-9.17163 -0.60302,-1.19473 -1.61257,-2.24255 -2.97191,-2.48844 z" /><ellipse
             style="fill:#d88c5a;fill-opacity:1;stroke:none;stroke-width:0.321"
             id="ellipse69"
             cx="-76.986389"
             cy="189.89742"
             rx="5.0604091"
             ry="9.384758"
             transform="rotate(10.729457)" /></g><g
           id="g70"
           transform="translate(-0.09758862)"><path
             id="path69"
             style="fill:#9e592b;fill-opacity:1;stroke:none;stroke-width:0.321"
             d="m -102.68945,166.55456 c -2.11131,0.005 -4.04042,1.79745 -4.11767,3.92048 -0.22472,2.2236 1.65847,4.382 3.89557,4.45695 2.22439,0.2248 4.383007,-1.65716 4.456949,-3.89556 0.225174,-2.22413 -1.659099,-4.38081 -3.895569,-4.45696 -0.11263,-0.003 -0.2271,-0.0426 -0.33928,-0.0249 z" /><circle
             style="fill:#d88c5a;fill-opacity:1;stroke:none;stroke-width:0.321"
             id="circle69"
             cx="-102.66323"
             cy="170.12949"
             r="3.675838" /></g></g><path
         id="path81"
         style="fill:#9e592b;fill-opacity:1;stroke:none;stroke-width:0.321"
         d="m -88.226562,141.39453 c -3.040713,0.0285 -5.964923,1.3944 -8.133472,3.49078 -3.209789,3.04164 -5.054826,7.29074 -5.805016,11.59886 -0.93872,5.46184 -0.1989,11.27476 2.41674,16.19023 1.666801,3.06409 4.183431,5.81629 7.47116,7.13029 2.682418,1.13358 5.803933,1.05886 8.463376,-0.10644 3.653593,-1.61743 6.321733,-4.9073 7.902362,-8.50588 2.271797,-5.14866 2.654787,-11.06197 1.32115,-16.51067 -1.041613,-4.14845 -3.172179,-8.17494 -6.616218,-10.80914 -2.010014,-1.5429 -4.476801,-2.46371 -7.020082,-2.47803 z" /><ellipse
         style="fill:#d38d5f;fill-opacity:1;stroke:none;stroke-width:0.321"
         id="ellipse84"
         cx="-88.189117"
         cy="159.95493"
         rx="13.847118"
         ry="19.091543" /><ellipse
         style="fill:#9e592b;fill-opacity:1;stroke:none;stroke-width:0.273115"
         id="ellipse89"
         cx="-91.480698"
         cy="136.78023"
         rx="14.671222"
         ry="17.305716" /><ellipse
         style="fill:#d38d5f;fill-opacity:1;stroke:none;stroke-width:0.273115"
         id="ellipse90"
         cx="-90.95153"
         cy="135.72191"
         rx="14.671222"
         ry="17.305716" /><g
         id="g105"
         transform="matrix(1.1460721,-0.61435619,0.56957115,1.236187,-60.464826,-94.372001)"><ellipse
           style="fill:#9e592b;fill-opacity:1;stroke:none;stroke-width:0.321"
           id="ellipse91"
           cx="-105.82086"
           cy="135.77167"
           rx="3.2059634"
           ry="4.6641545" /><path
           id="path105"
           style="fill:#d38d5f;fill-opacity:1;stroke:none;stroke-width:0.321"
           d="m -105.30382,132.26186 c -1.76106,0.77484 -2.27384,2.98087 -2.0788,4.73698 0.14683,1.46815 0.96382,3.28228 2.61982,3.43099 1.67073,-0.1507 2.48421,-1.99062 2.6247,-3.46902 0.1866,-1.74644 -0.33728,-3.9281 -2.08369,-4.69895 -0.37024,-0.0968 -0.71073,-0.0958 -1.08203,0 z" /></g><path
         id="path106"
         style="fill:#000000;fill-opacity:1;stroke:none;stroke-width:0.556022"
         d="m -84.480469,110.00391 c -2.344025,0.13779 -4.669654,1.0633 -6.361328,2.71093 -4.250412,-1.56533 -9.527293,0.16384 -11.798033,4.14234 -0.37076,0.51403 -0.50967,1.24642 -0.85313,1.70624 -3.74539,1.01288 -6.74939,4.53629 -6.80848,8.47093 -0.13423,3.71394 2.36068,7.24299 5.79193,8.57549 3.86136,1.64493 8.724046,0.59087 11.424788,-2.66228 0.733856,-0.87131 1.321115,-1.87652 1.6648,-2.96514 1.530907,-0.4245 2.969988,-1.21649 4.109375,-2.32812 2.815741,1.005 6.079694,0.65856 8.621094,-0.91602 3.276483,1.59737 7.785237,0.14274 9.205895,-3.29396 1.056762,-2.38831 0.269346,-5.37079 -1.780203,-6.97381 -1.159858,-0.96406 -2.648604,-1.50142 -4.148348,-1.58574 -1.74735,-3.22038 -5.455752,-5.06639 -9.06836,-4.88086 z" /><path
         id="path107"
         style="fill:#0b0400;fill-opacity:1;stroke:none;stroke-width:0.556022"
         d="m -83.46875,108.92956 c -2.483644,0.0294 -4.981191,0.99585 -6.707031,2.80664 -3.508774,-1.4037 -7.841443,-0.49245 -10.389539,2.32937 -0.87054,0.94036 -1.52896,2.08383 -1.88585,3.31712 -3.21423,0.75796 -5.99191,3.38467 -6.62399,6.66915 -0.59283,2.69694 0.37223,5.62423 2.34213,7.53782 2.3284,2.32643 5.92242,3.20425 9.086348,2.3554 2.940417,-0.74611 5.503018,-3.03368 6.340041,-5.9823 1.657712,-0.41038 3.209956,-1.26841 4.394532,-2.5039 2.827677,1.11694 6.181865,0.77064 8.716797,-0.90821 2.616614,1.38551 6.170451,0.71961 8.002943,-1.63903 1.439239,-1.75531 1.583728,-4.4359 0.290479,-6.31327 -1.128922,-1.77282 -3.230247,-2.76101 -5.303188,-2.78402 -1.239777,-2.48353 -3.743485,-4.2143 -6.452348,-4.70837 -0.589152,-0.1346 -1.211412,-0.11963 -1.811324,-0.1764 z" /><g
         id="g108"
         transform="matrix(0.82102381,0,0,0.59166602,-15.637827,66.384767)"><circle
           style="fill:#9e592b;fill-opacity:1;stroke:none;stroke-width:0.321"
           id="circle107"
           cx="-93.847733"
           cy="161.314"
           r="1.6590066" /><circle
           style="fill:#d38d5f;fill-opacity:1;stroke:none;stroke-width:0.321"
           id="circle108"
           cx="-94.075439"
           cy="160.72847"
           r="1.6590066" /></g><g
         id="g113"><g
           id="g110"
           transform="matrix(0.74169231,0.00835313,-0.01126154,0.99993659,-15.22134,-12.541739)"><path
             id="path109"
             style="fill:#9e592b;fill-opacity:1;stroke:none;stroke-width:0.321"
             d="m -109.35518,163.27593 c -2.04954,-0.27664 -3.81207,1.23021 -4.88654,2.82642 -2.06084,3.02552 -2.88291,6.81285 -2.61661,10.43952 0.21532,2.03021 0.78293,4.27354 2.48206,5.56703 1.36073,1.12472 3.41155,0.77576 4.67379,-0.33072 2.09883,-1.6822 3.2325,-4.28693 3.86709,-6.84218 0.70768,-3.00509 0.80105,-6.32975 -0.54788,-9.17163 -0.60302,-1.19473 -1.61257,-2.24255 -2.97191,-2.48844 z" /><ellipse
             style="fill:#d88c5a;fill-opacity:1;stroke:none;stroke-width:0.321"
             id="ellipse110"
             cx="-76.986389"
             cy="189.89742"
             rx="5.0604091"
             ry="9.384758"
             transform="rotate(10.729457)" /></g><g
           id="g111"
           transform="rotate(0.6452524,85.506674,322.61946)"><path
             id="path110"
             style="fill:#9e592b;fill-opacity:1;stroke:none;stroke-width:0.321"
             d="m -102.68945,166.55456 c -2.11131,0.005 -4.04042,1.79745 -4.11767,3.92048 -0.22472,2.2236 1.65847,4.382 3.89557,4.45695 2.22439,0.2248 4.383007,-1.65716 4.456949,-3.89556 0.225174,-2.22413 -1.659099,-4.38081 -3.895569,-4.45696 -0.11263,-0.003 -0.2271,-0.0426 -0.33928,-0.0249 z" /><circle
             style="fill:#d88c5a;fill-opacity:1;stroke:none;stroke-width:0.321"
             id="circle110"
             cx="-102.66323"
             cy="170.12949"
             r="3.675838" /></g></g><g
         id="g138"><g
           id="g137"
           transform="translate(41.771375,-0.18401487)"><path
             id="path113"
             style="fill:#281000;fill-opacity:1;stroke-width:0.320704"
             d="m -142.02639,113.99943 c 8.08486,2.50355 15.19927,9.29879 26.88055,2.43302 2.91266,13.33308 5.48265,26.00858 2.56999,38.28954 -9.21719,2.80564 -20.83302,2.93716 -29.70754,0.13152 3.59799,-12.01793 3.85499,-27.25798 0.257,-40.85408 z" /><path
             id="path114"
             style="fill:#552200;stroke-width:0.321"
             d="m -139.63754,114.81911 c 8.23753,1.77976 15.77672,5.0681 27.47939,0 2.94935,13.19152 2.94935,25.86256 0,38.01313 -9.33329,2.77585 -18.49308,2.77585 -27.47939,0 3.64331,-11.89033 3.64331,-24.56138 0,-38.01313 z" /><ellipse
             style="fill:#281000;fill-opacity:1;stroke:none;stroke-width:0.321"
             id="ellipse129"
             cx="-127.94169"
             cy="134.82729"
             rx="5.0420785"
             ry="5.9529061" /><ellipse
             style="fill:#281000;fill-opacity:1;stroke:none;stroke-width:0.243399"
             id="ellipse130"
             cx="-117.12587"
             cy="131.0193"
             rx="2.9215062"
             ry="5.9069023" /><path
             id="path130"
             style="fill:#281000;stroke-width:0.321"
             d="m -134.67384,144.42812 4.55294,6.90199 2.85581,-5.50412 3.41482,5.17622 2.85633,-5.50415 3.41482,5.17622 3.80826,-7.3392 c -6.78252,-1.07859 -13.75018,-0.71424 -20.90298,1.09304 z" /><path
             id="path131"
             style="fill:#210d00;fill-opacity:1;stroke:none;stroke-width:0.321"
             d="m -128.80273,129.50586 c -2.55414,0.66573 -3.92194,3.5335 -3.59226,6.01985 0.17863,2.25918 1.8857,4.59467 4.2878,4.70159 2.30218,0.11707 4.13389,-1.94357 4.52593,-4.08198 0.53741,-2.42527 -0.4791,-5.35719 -2.84917,-6.40625 -0.74675,-0.33852 -1.57326,-0.37695 -2.3723,-0.23321 z" /><path
             id="path132"
             style="fill:#210d00;fill-opacity:1;stroke:none;stroke-width:0.243399"
             d="m -117.50195,125.72852 c -1.42094,0.84841 -1.73744,2.67457 -1.96289,4.1875 -0.12815,2.05163 0.0266,4.36107 1.41315,5.98991 0.53498,0.72453 1.6077,0.5082 2.04402,-0.2081 1.36733,-1.95974 1.44551,-4.53971 1.06431,-6.82674 -0.30701,-1.17816 -0.68895,-2.63744 -1.90474,-3.16199 -0.22188,-0.0821 -0.43169,-0.0323 -0.65385,0.0194 z" /><path
             style="fill:#210d00;fill-opacity:1;stroke:none;stroke-width:0.321"
             id="path133"
             d="m -135.21789,116.01541 c -2e-5,0.32474 0.0264,0.64883 0.0525,0.97233 0.0425,0.35884 0.0683,0.72022 0.1281,1.07689 0.009,0.0542 0.096,0.48691 0.10666,0.54 0.10751,0.58651 0.31031,1.14843 0.51087,1.70801 0.2395,0.64099 0.46704,1.28655 0.65444,1.94482 0.1517,0.55303 0.28729,1.11029 0.39458,1.67364 0.0828,0.46279 0.0999,0.93299 0.10988,1.40188 0.006,0.49866 0.005,0.99737 0.005,1.49605 2.1e-4,0.52994 -0.002,1.05988 -0.003,1.58982 -0.005,0.40075 0.008,0.80196 -0.01,1.20243 -0.006,0.35139 -0.0719,0.69568 -0.1522,1.03653 -0.0836,0.35225 -0.20605,0.69213 -0.33596,1.02943 -0.16175,0.43 -0.34574,0.84987 -0.4979,1.28354 -0.14615,0.39225 -0.26896,0.79204 -0.39371,1.19135 -0.11023,0.33613 -0.17706,0.68274 -0.22849,1.03199 -0.0785,0.36521 -0.17415,0.72491 -0.22592,1.09537 -0.0432,0.36767 -0.0746,0.73582 -0.0925,1.10554 -0.0162,0.45637 -0.0154,0.9131 -0.0153,1.36969 1e-4,0.50426 3e-5,1.00851 -2.7e-4,1.51277 -0.008,0.50574 0.0408,1.00967 0.0772,1.51347 0.025,0.48143 0.0505,0.96266 0.0794,1.4439 0.0318,0.49414 0.0965,0.98523 0.13136,1.47942 0.0212,0.51171 0.0527,1.02254 0.0956,1.53288 0.0424,0.48238 0.0584,0.96639 0.0669,1.45037 0.006,0.42521 0.005,0.85048 0.005,1.27573 0.004,0.39123 0.002,0.78173 -0.0375,1.17122 -0.0416,0.37086 -0.10412,0.74099 -0.18418,1.10552 -0.0779,0.40131 -0.16673,0.79881 -0.27509,1.19309 -0.11542,0.39832 -0.24664,0.79155 -0.4222,1.16758 -0.0762,0.18227 -0.17579,0.35381 -0.24812,0.53751 -0.0397,0.14548 -0.11296,0.27659 -0.15732,0.4205 0,0 0.43311,0.23694 0.43311,0.23694 v 0 c 0.0424,-0.14338 0.11698,-0.27271 0.15447,-0.41773 0.0704,-0.18353 0.17042,-0.35428 0.24157,-0.53784 0.17166,-0.38091 0.29932,-0.7781 0.41986,-1.17775 0.10955,-0.3944 0.20384,-0.79116 0.27982,-1.19339 0.0813,-0.36608 0.14328,-0.73815 0.18668,-1.11055 0.0398,-0.39109 0.0438,-0.78332 0.0385,-1.1762 -2.7e-4,-0.42577 1e-4,-0.85158 -0.006,-1.27733 -0.01,-0.4854 -0.0264,-0.97082 -0.0685,-1.45467 -0.0435,-0.51002 -0.0753,-1.02038 -0.0949,-1.53189 -0.0367,-0.49349 -0.0967,-0.98464 -0.13003,-1.47812 -0.0295,-0.4819 -0.0571,-0.9637 -0.0821,-1.44585 -0.0359,-0.5025 -0.0841,-1.00502 -0.0766,-1.50941 -8e-4,-0.50445 -0.002,-1.00891 -0.001,-1.51336 0.002,-0.45513 0.002,-0.91042 0.019,-1.36529 0.0171,-0.36823 0.0506,-0.73467 0.0921,-1.10092 0.0499,-0.37077 0.1429,-0.73096 0.22436,-1.09556 0.0522,-0.34661 0.11837,-0.69079 0.22545,-1.02524 0.12309,-0.39956 0.24362,-0.79975 0.38841,-1.19225 0.15175,-0.43316 0.33593,-0.85201 0.50194,-1.27965 0.13046,-0.33939 0.25527,-0.68069 0.33896,-1.03517 0.0824,-0.34321 0.15094,-0.69009 0.15705,-1.04433 0.0179,-0.40185 0.001,-0.80443 0.006,-1.20656 -0.001,-0.53058 -0.002,-1.06117 -5.3e-4,-1.59176 0.002,-0.49844 0.006,-0.9969 -0.001,-1.49532 -0.009,-0.47143 -0.0238,-0.94407 -0.10712,-1.40947 -0.10752,-0.56618 -0.24754,-1.12537 -0.40023,-1.68098 -0.18581,-0.65962 -0.41247,-1.30618 -0.6532,-1.94764 -0.19647,-0.55781 -0.39932,-1.11613 -0.5083,-1.69923 -0.0358,-0.17932 -0.0771,-0.35757 -0.10817,-0.53777 -0.0611,-0.35471 -0.0852,-0.71464 -0.12494,-1.07198 -0.0245,-0.32004 -0.0481,-0.64143 -0.0415,-0.9625 z" /><path
             style="fill:#210d00;fill-opacity:1;stroke:none;stroke-width:0.321"
             id="path134"
             d="m -128.52945,117.13301 c -0.0746,0.41004 -0.11632,0.82257 -0.14096,1.23833 -0.0251,0.48457 -0.0336,0.96977 -0.0362,1.45491 -0.005,0.47675 -0.004,0.9527 0.0457,1.42713 0.0567,0.52483 0.13252,1.04728 0.23533,1.56503 0.11206,0.47167 0.23464,0.94022 0.38031,1.40261 0.16254,0.48929 0.29809,0.98675 0.45622,1.47747 0.14415,0.47108 0.31084,0.93472 0.45953,1.40436 0.14577,0.41011 0.252,0.83322 0.34611,1.25779 0.10432,0.424 0.20631,0.84892 0.28333,1.27884 0.0766,0.41722 0.13028,0.83756 0.16407,1.26027 0.034,0.51871 0.037,1.0388 0.0403,1.55842 0.002,0.56304 0.001,1.12609 -2.6e-4,1.68914 -3e-5,0.54747 -0.001,1.09493 1.1e-4,1.6424 0.003,0.66471 0.002,1.32943 0.001,1.99415 0.004,0.64833 -0.1154,1.28645 -0.22037,1.9234 -0.11785,0.67214 -0.25125,1.34169 -0.40163,2.00729 -0.11541,0.52381 -0.26122,1.0401 -0.38821,1.561 -0.11685,0.44925 -0.20922,0.90481 -0.33006,1.3529 -0.11739,0.45512 -0.23314,0.91032 -0.3366,1.36884 -0.0983,0.47205 -0.13372,0.95452 -0.16828,1.43462 -0.0349,0.56017 -0.0383,1.12155 -0.0425,1.68258 -0.004,0.45788 -0.0104,0.91545 0.0136,1.37282 0.0146,0.34872 0.0454,0.69643 0.0881,1.04278 0.0418,0.30799 0.0664,0.61778 0.0791,0.92823 0.0272,0.31041 0.0491,0.6211 0.0619,0.93245 0.008,0.21873 0.01,0.43765 0.0103,0.65652 1.8e-4,0.185 -1.5e-4,0.37001 -7.9e-4,0.55501 -8e-4,0.1825 5.3e-4,0.36499 2.5e-4,0.54749 0.002,0.16851 -0.0296,0.33498 -0.0467,0.50222 -0.009,0.10262 -0.005,0.0518 -0.0113,0.15248 0,0 0.43828,0.22664 0.43828,0.22664 v 0 c 0.006,-0.0997 0.002,-0.0494 0.01,-0.15105 0.0161,-0.16907 0.0496,-0.33708 0.0476,-0.50721 -2.6e-4,-0.18234 0.001,-0.36466 5.3e-4,-0.547 -1.9e-4,-0.18522 1.3e-4,-0.37044 -1.7e-4,-0.55565 -0.001,-0.22002 -0.002,-0.44007 -0.0124,-0.6599 -0.0153,-0.31113 -0.0359,-0.62188 -0.0618,-0.9323 -0.0139,-0.31203 -0.0385,-0.62338 -0.0803,-0.93305 -0.0416,-0.346 -0.077,-0.69272 -0.0917,-1.04103 -0.0262,-0.45756 -0.0238,-0.9153 -0.0215,-1.37354 0.003,-0.55984 0.008,-1.12006 0.0427,-1.679 0.0345,-0.47745 0.0731,-0.95684 0.16813,-1.42666 0.10202,-0.4582 0.21529,-0.91328 0.33561,-1.367 0.12157,-0.44858 0.21243,-0.90522 0.32796,-1.35547 0.12564,-0.5218 0.27281,-1.03832 0.3857,-1.56328 0.14862,-0.66758 0.27553,-1.34004 0.39572,-2.01328 0.11046,-0.63793 0.23756,-1.27694 0.22928,-1.92762 -0.001,-0.66431 -0.002,-1.32862 10e-4,-1.99293 0.001,-0.54722 5.3e-4,-1.09443 0.001,-1.64165 -5.3e-4,-0.56329 7.9e-4,-1.12657 -5.3e-4,-1.68985 -0.002,-0.52008 -0.003,-1.04055 -0.0354,-1.55984 -0.0314,-0.42329 -0.0815,-0.84448 -0.15721,-1.26232 -0.0782,-0.43128 -0.1831,-0.85705 -0.28743,-1.28263 -0.089,-0.42636 -0.19616,-0.8505 -0.34246,-1.26106 -0.14878,-0.47111 -0.31956,-0.93484 -0.46466,-1.40713 -0.15889,-0.48949 -0.2886,-0.98772 -0.4528,-1.47552 -0.14664,-0.46085 -0.26885,-0.92819 -0.38299,-1.39812 -0.10428,-0.51634 -0.18472,-1.03733 -0.23829,-1.56147 -0.048,-0.47243 -0.0537,-0.94616 -0.0447,-1.42081 0.002,-0.48505 0.005,-0.97033 0.0304,-1.45483 0.0264,-0.41141 0.0683,-0.82047 0.15316,-1.22448 z" /><path
             style="fill:#210d00;fill-opacity:1;stroke:none;stroke-width:0.321"
             id="path135"
             d="m -119.60402,117.11347 c 0.0136,0.48986 0.10509,0.97507 0.18133,1.45826 0.14017,0.92839 0.26483,1.85961 0.3785,2.79167 0.13412,1.05603 0.21855,2.11653 0.26672,3.17965 0.0432,0.88311 0.0846,1.76666 0.0805,2.65099 -0.009,0.77199 -0.10201,1.53762 -0.21495,2.30012 -0.10498,0.69293 -0.23858,1.38114 -0.34851,2.07318 -0.0945,0.71657 -0.1867,1.43343 -0.28756,2.14914 -0.0219,0.142 -0.0418,0.28432 -0.0656,0.426 -0.0371,0.20275 -0.11536,0.62615 -0.14966,0.83061 -0.064,0.38174 -0.11091,0.76575 -0.16617,1.1488 -0.10773,0.69594 -0.14968,1.39883 -0.17097,2.10195 -0.0265,0.78579 -0.016,1.57062 0.0518,2.35386 0.0961,0.94667 0.27682,1.88115 0.39547,2.82499 0.0916,0.71753 0.19954,1.43277 0.2881,2.1508 0.0647,0.52362 0.0825,1.05109 0.0916,1.57809 0.005,0.45653 0.004,0.91312 0.002,1.36967 -0.002,0.42785 9e-5,0.85571 2.6e-4,1.28357 0.0153,0.44504 -0.0376,0.88494 -0.11285,1.32234 -0.0819,0.416 -0.17769,0.82919 -0.27292,1.24233 -0.0679,0.40437 -0.16788,0.80062 -0.27782,1.19511 -0.0837,0.35449 -0.22821,0.68555 -0.37008,1.01893 -0.0838,0.18728 -0.15942,0.37784 -0.23857,0.56711 -0.0703,0.11626 -0.12015,0.23839 -0.14664,0.37138 0,0 0.43632,0.23272 0.43632,0.23272 v 0 c 0.0235,-0.13055 0.0722,-0.24933 0.14054,-0.36326 0.0774,-0.19019 0.1518,-0.38133 0.23336,-0.56974 0.13853,-0.33708 0.2843,-0.67041 0.36753,-1.02723 0.10999,-0.39496 0.21411,-0.7908 0.28095,-1.19595 0.0944,-0.41443 0.18604,-0.82961 0.27169,-1.24591 0.0769,-0.43987 0.13221,-0.88263 0.11511,-1.33044 5.3e-4,-0.42733 0.003,-0.85465 0.003,-1.28198 -7.9e-4,-0.45748 5.3e-4,-0.91498 -0.005,-1.37244 -0.01,-0.52927 -0.0264,-1.05914 -0.0936,-1.58483 -0.0928,-0.71999 -0.20271,-1.43745 -0.29998,-2.15674 -0.12204,-0.94249 -0.29977,-1.87687 -0.39536,-2.82276 -0.0648,-0.78069 -0.0747,-1.56238 -0.0469,-2.34536 0.0222,-0.7017 0.0603,-1.40344 0.16684,-2.09825 0.0543,-0.38317 0.0988,-0.76749 0.1618,-1.14939 0.13666,-0.82889 0.007,0.007 0.14912,-0.83197 0.024,-0.14168 0.0445,-0.28395 0.0667,-0.42593 0.10712,-0.71365 0.20086,-1.42925 0.2946,-2.14475 0.10993,-0.693 0.23918,-1.38293 0.34196,-2.07716 0.11374,-0.76436 0.21569,-1.53085 0.21962,-2.30529 1e-4,-0.88649 -0.0411,-1.77232 -0.0883,-2.65742 -0.0488,-1.06429 -0.13769,-2.12557 -0.2665,-3.18333 -0.11136,-0.93033 -0.23225,-1.85994 -0.36615,-2.78724 -0.0711,-0.47627 -0.15901,-0.95657 -0.15939,-1.43909 z" /><path
             style="fill:#210d00;fill-opacity:1;stroke:none;stroke-width:0.321"
             id="path136"
             d="m -115.42697,116.02087 c 0.12751,0.42648 0.30635,0.83457 0.48965,1.23936 0.17065,0.39937 0.35014,0.79633 0.4697,1.21495 0.0711,0.24903 0.1477,0.61183 0.2027,0.85831 0.19286,0.88595 0.27116,1.78906 0.31338,2.69288 0.0258,0.69272 0.0232,1.38604 0.0217,2.07911 0.008,0.63139 -0.01,1.26232 -0.068,1.89109 -0.0585,0.6423 -0.16593,1.2797 -0.27677,1.91482 -0.10625,0.70075 -0.20407,1.40294 -0.29871,2.10538 -0.10114,0.74143 -0.20678,1.48174 -0.27284,2.22728 -0.0464,0.70231 -0.0836,1.40529 -0.0996,2.10899 -0.0129,0.9782 -0.0274,1.95678 -0.0154,2.93505 0.0208,0.73874 0.0252,1.47802 0.0517,2.21657 0.0424,0.62685 0.0862,1.25389 0.15619,1.87832 0.0775,0.5845 0.1628,1.16806 0.23155,1.75368 0.0489,0.43164 0.0583,0.86624 0.0633,1.30019 0.0216,0.45574 0.043,0.91137 0.0545,1.36751 0.009,0.45603 0.0112,0.91216 0.0136,1.36826 -0.005,0.67008 -0.063,1.33771 -0.12516,2.00439 -0.0587,0.67727 -0.12638,1.35388 -0.20756,2.02884 -0.0696,0.48689 -0.0868,0.97867 -0.1247,1.46838 -0.0211,0.28029 -0.0724,0.5573 -0.11648,0.83469 -0.0472,0.22458 -0.12973,0.43834 -0.17533,0.66359 -0.0187,0.17684 -0.0519,0.35142 -0.0782,0.52719 -0.0117,0.0956 -0.007,0.0482 -0.0155,0.14223 0,0 0.43801,0.2281 0.43801,0.2281 v 0 c 0.008,-0.0926 0.003,-0.0459 0.0137,-0.1401 0.0245,-0.17551 0.0587,-0.34943 0.0751,-0.52601 0.0431,-0.22653 0.12454,-0.44117 0.17419,-0.66593 0.0473,-0.27891 0.0909,-0.55953 0.1124,-0.84166 0.0354,-0.49038 0.0474,-0.98286 0.11621,-1.4705 0.0782,-0.67645 0.142,-1.35447 0.20253,-2.03271 0.0637,-0.66674 0.12534,-1.33442 0.13454,-2.00461 0.001,-0.45573 0.004,-0.91153 -0.009,-1.36716 -0.0126,-0.4558 -0.0324,-0.91127 -0.0545,-1.3667 -0.005,-0.43576 -0.0117,-0.87238 -0.0628,-1.30573 -0.0719,-0.58677 -0.16248,-1.17112 -0.23973,-1.75721 -0.0675,-0.62348 -0.11028,-1.24938 -0.15656,-1.87473 -0.0297,-0.74007 -0.0358,-1.48101 -0.0633,-2.22121 -0.0168,-0.97699 -0.004,-1.95429 0.0188,-2.9311 0.0243,-0.70191 0.06,-1.40336 0.10269,-2.10437 0.0631,-0.74542 0.16838,-1.48518 0.27038,-2.2261 0.0933,-0.7014 0.19652,-1.40158 0.30294,-2.10109 0.10951,-0.63652 0.217,-1.27502 0.27859,-1.9181 0.0585,-0.6301 0.0773,-1.26227 0.0697,-1.89506 7e-5,-0.69507 -2.6e-4,-1.3904 -0.0284,-2.08503 -0.0447,-0.90692 -0.12503,-1.81257 -0.31517,-2.70228 -0.0587,-0.27856 -0.11792,-0.58231 -0.19316,-0.8584 -0.11438,-0.41977 -0.28925,-0.81746 -0.45975,-1.21661 -0.18074,-0.39864 -0.35809,-0.80053 -0.47575,-1.22319 z" /><path
             id="path137"
             style="fill:#1a0b00;fill-opacity:1;stroke-width:0.321"
             d="m -122.75781,143.80651 c -3.68334,0.0983 -7.43795,0.61611 -11.06055,1.48828 1.21419,1.8405 2.42839,3.68099 3.64258,5.52149 0.95175,-1.83467 1.90427,-3.66895 2.85547,-5.50391 1.13838,1.72545 2.27737,3.4505 3.41601,5.17578 0.95176,-1.83467 1.90427,-3.66894 2.85547,-5.5039 1.13815,1.72517 2.27603,3.45053 3.41406,5.17578 1.01693,-1.95964 2.03386,-3.91927 3.05079,-5.87891 -2.72982,-0.39578 -5.42019,-0.5399 -8.17383,-0.47461 z" /></g></g><path
         id="path138"
         style="fill:#000000;fill-opacity:1;stroke:none;stroke-width:0.412436"
         d="m -82.730469,112.85156 c -2.551656,0.0392 -5.296172,0.90441 -6.885321,3.00497 -1.037968,1.3144 -1.24731,3.1948 -0.483819,4.6923 1.300187,2.43288 4.145805,3.6017 6.79244,3.72834 2.727742,0.16521 5.712608,-0.69647 7.475416,-2.8861 1.162004,-1.42912 1.355429,-3.58165 0.321154,-5.12997 -1.482843,-2.40858 -4.522851,-3.38691 -7.21987,-3.40954 z" /><ellipse
         style="fill:#0b0400;fill-opacity:1;stroke:none;stroke-width:0.412436"
         id="ellipse138"
         cx="-82.167381"
         cy="116.99441"
         rx="7.3533525"
         ry="5.2035151" /><ellipse
         style="fill:#9e592b;fill-opacity:1;stroke:none;stroke-width:0.22794"
         id="ellipse139"
         cx="-35.251324"
         cy="190.09167"
         rx="0.99215102"
         ry="1.3987703"
         transform="rotate(16.292065)" /><g
         id="g140"
         transform="matrix(0.82102381,0,0,0.59166602,-3.0163652,65.864294)"><circle
           style="fill:#9e592b;fill-opacity:1;stroke:none;stroke-width:0.321"
           id="circle139"
           cx="-93.847733"
           cy="161.314"
           r="1.6590066" /><circle
           style="fill:#d38d5f;fill-opacity:1;stroke:none;stroke-width:0.321"
           id="circle140"
           cx="-94.075439"
           cy="160.72847"
           r="1.6590066" /></g><g
         id="g144"
         transform="rotate(-7.5316576,95.810518,358.22245)"><g
           id="g143"
           transform="translate(30.047673,0.16760918)"><path
             id="path140"
             style="fill:#112b00;fill-opacity:1;stroke:none;stroke-width:0.354153"
             d="m -99.780361,164.76778 c -2.562489,-0.0785 -4.877819,1.64376 -4.940669,3.77085 -0.24038,2.22217 2.07674,4.46224 4.79307,4.62587 2.703092,0.31348 5.295677,-1.48946 5.352833,-3.73244 0.24092,-2.22268 -2.077484,-4.46107 -4.79307,-4.62588 -0.136744,-0.008 -0.276265,-0.0517 -0.412165,-0.0383 z" /><ellipse
             style="fill:#225500;fill-opacity:1;stroke:none;stroke-width:0.354349"
             id="ellipse140"
             cx="-102.24189"
             cy="171.70181"
             rx="4.4638524"
             ry="3.6885421"
             transform="matrix(0.99947009,0.03255053,0.01450909,0.99989474,0,0)" /><ellipse
             style="fill:#112b00;fill-opacity:1;stroke:none;stroke-width:0.357436"
             id="ellipse141"
             cx="-77.65596"
             cy="179.74591"
             transform="rotate(7.5316579)"
             rx="2.9756117"
             ry="2.2507143" /><g
             id="g142"
             transform="matrix(0.74169231,0.00835313,-0.01126154,0.99993659,-15.22134,-12.541739)"><path
               id="path141"
               style="fill:#9e592b;fill-opacity:1;stroke:none;stroke-width:0.321"
               d="m -109.35518,163.27593 c -2.04954,-0.27664 -3.81207,1.23021 -4.88654,2.82642 -2.06084,3.02552 -2.88291,6.81285 -2.61661,10.43952 0.21532,2.03021 -0.4429,3.93437 1.25623,5.22786 1.36073,1.12472 5.48713,1.32212 6.74937,0.21564 2.09883,-1.6822 2.38275,-4.49412 3.01734,-7.04937 0.70768,-3.00509 0.80105,-6.32975 -0.54788,-9.17163 -0.60302,-1.19473 -1.61257,-2.24255 -2.97191,-2.48844 z" /><path
               id="path142"
               style="fill:#d88c5a;stroke-width:0.321"
               transform="rotate(10.729457)"
               d="m -71.92598,189.89742 c -2e-6,5.18306 -0.697476,9.16626 -4.791769,9.65349 -4.403446,0.52402 -5.335615,-4.46214 -5.329049,-9.65349 0.0066,-5.18361 2.265622,-9.38476 5.060409,-9.38476 2.794787,0 5.06041,4.2017 5.060409,9.38476 z" /></g></g></g><path
         id="path144"
         style="fill:#112b00;stroke-width:0.324368"
         d="m -76.378771,171.86358 c -4.536025,1.9166 -9.463211,3.00865 -14.374638,2.67504 -3.257079,-0.17552 -6.495827,-0.87768 -9.660521,-1.78636 -0.5638,3.01302 -1.12625,6.02629 -1.69141,9.03906 9.256416,1.57471 18.743758,1.25673 27.998054,-0.15625 -0.55671,-3.33744 -1.10788,-6.67582 -1.66211,-10.01367 -0.203125,0.0807 -0.40625,0.16146 -0.609375,0.24218 z" /><path
         id="path145"
         style="fill:#225500;stroke-width:0.321"
         d="m -77.440733,172.7952 c -4.721101,1.87323 -9.886143,2.67269 -14.941089,2.05062 -2.304125,-0.2597 -4.579378,-0.7411 -6.810864,-1.36508 -0.417318,2.27605 -0.834634,4.55209 -1.251954,6.82813 8.283782,1.32656 16.721826,1.0445 24.988282,-0.16992 -0.414063,-2.54818 -0.828125,-5.09636 -1.242188,-7.64453 -0.247395,0.10026 -0.494791,0.20052 -0.742187,0.30078 z" /><g
         id="g147"
         style="opacity:1"><path
           style="baseline-shift:baseline;display:inline;overflow:visible;vector-effect:none;fill:#112b00;enable-background:accumulate;stop-color:#000000;stop-opacity:1"
           d="m -80.242793,173.62151 1.513722,7.49162"
           id="path146" /><path
           style="baseline-shift:baseline;display:inline;overflow:visible;vector-effect:none;fill:#112b00;enable-background:accumulate;stop-color:#000000;stop-opacity:1"
           d="m -80.072266,173.58789 -0.339843,0.0684 c 1.348401,2.36173 1.695306,4.8837 1.513672,7.49023 l 0.339843,-0.0684 c 0.08562,-2.5389 0.08502,-5.07164 -1.513672,-7.49023 z"
           id="path147" /></g><g
         id="g153"
         style="opacity:1"
         transform="rotate(4.3901516,-90.5539,126.58457)"><path
           style="baseline-shift:baseline;display:inline;overflow:visible;vector-effect:none;fill:#112b00;enable-background:accumulate;stop-color:#000000;stop-opacity:1"
           d="m -80.242793,173.62151 1.513722,7.49162"
           id="path148" /><path
           style="baseline-shift:baseline;display:inline;overflow:visible;vector-effect:none;fill:#112b00;enable-background:accumulate;stop-color:#000000;stop-opacity:1"
           d="m -80.072266,173.58789 -0.339843,0.0684 c 1.348401,2.36173 1.695306,4.8837 1.513672,7.49023 l 0.339843,-0.0684 c 0.08562,-2.5389 0.08502,-5.07164 -1.513672,-7.49023 z"
           id="path153" /></g><g
         id="g155"
         style="opacity:1"
         transform="matrix(-1.3481221,0.08340435,0.10349926,1.0863773,-222.80307,-8.1391915)"><path
           style="baseline-shift:baseline;display:inline;overflow:visible;vector-effect:none;fill:#112b00;enable-background:accumulate;stop-color:#000000;stop-opacity:1"
           d="m -80.242793,173.62151 1.513722,7.49162"
           id="path154" /><path
           style="baseline-shift:baseline;display:inline;overflow:visible;vector-effect:none;fill:#112b00;enable-background:accumulate;stop-color:#000000;stop-opacity:1"
           d="m -80.072266,173.58789 -0.339843,0.0684 c 1.348401,2.36173 1.695306,4.8837 1.513672,7.49023 l 0.339843,-0.0684 c 0.08562,-2.5389 0.08502,-5.07164 -1.513672,-7.49023 z"
           id="path155" /></g><g
         id="g157"
         style="opacity:1"
         transform="matrix(-1.1685727,0.42790207,0.36225972,0.97380776,-250.10884,39.8724)"><path
           style="baseline-shift:baseline;display:inline;overflow:visible;vector-effect:none;fill:#112b00;enable-background:accumulate;stop-color:#000000;stop-opacity:1"
           d="m -80.242793,173.62151 1.513722,7.49162"
           id="path156" /><path
           style="baseline-shift:baseline;display:inline;overflow:visible;vector-effect:none;fill:#112b00;enable-background:accumulate;stop-color:#000000;stop-opacity:1"
           d="m -80.072266,173.58789 -0.339843,0.0684 c 1.348401,2.36173 1.695306,4.8837 1.513672,7.49023 l 0.339843,-0.0684 c 0.08562,-2.5389 0.08502,-5.07164 -1.513672,-7.49023 z"
           id="path157" /></g><g
         id="g164"
         style="opacity:1"
         transform="matrix(1.274593,0.40707641,-0.39512622,0.92641327,83.653291,46.525703)"><path
           style="baseline-shift:baseline;display:inline;overflow:visible;vector-effect:none;fill:#112b00;enable-background:accumulate;stop-color:#000000;stop-opacity:1"
           d="m -80.242793,173.62151 1.513722,7.49162"
           id="path163" /><path
           style="baseline-shift:baseline;display:inline;overflow:visible;vector-effect:none;fill:#112b00;enable-background:accumulate;stop-color:#000000;stop-opacity:1"
           d="m -80.072266,173.58789 -0.339843,0.0684 c 1.348401,2.36173 1.695306,4.8837 1.513672,7.49023 l 0.339843,-0.0684 c 0.08562,-2.5389 0.08502,-5.07164 -1.513672,-7.49023 z"
           id="path164" /></g></g></g></svg>
