<?xml version="1.0" encoding="UTF-8" standalone="no"?>
<!-- Created with Inkscape (http://www.inkscape.org/) -->

<svg
   width="66.145836mm"
   height="66.145844mm"
   viewBox="0 0 66.145836 66.145844"
   version="1.1"
   id="svg1"
   xmlns="http://www.w3.org/2000/svg"
   xmlns:svg="http://www.w3.org/2000/svg">
  <defs
     id="defs1" />
  <g
     id="layer1"
     transform="translate(88.740595,-19.606106)">
    <rect
       style="fill:none;stroke-width:0.321"
       id="rect12"
       width="66.145836"
       height="66.145836"
       x="-88.740593"
       y="19.606106" />
    <rect
       style="fill:#d38d5f;stroke-width:1.79723"
       id="rect13"
       width="3.6075985"
       height="11.286119"
       x="-62.441628"
       y="71.548035" />
    <rect
       style="fill:#d38d5f;stroke-width:1.79723"
       id="rect19"
       width="3.6075985"
       height="11.286119"
       x="-54.421757"
       y="71.548035" />
    <rect
       style="fill:#d38d5f;stroke-width:1.79723"
       id="rect20"
       width="11.409711"
       height="3.5353255"
       x="-12.739053"
       y="-80.562439"
       transform="rotate(-136.90274)" />
    <rect
       style="fill:#d38d5f;stroke-width:1.79723"
       id="rect26"
       width="13.104773"
       height="16.823601"
       x="-63.011826"
       y="55.22052" />
    <ellipse
       style="fill:#d38d5f;stroke-width:2.41343"
       id="ellipse29"
       cx="-57.760479"
       cy="41.030933"
       rx="14.397075"
       ry="15.72789" />
    <path
       id="path29"
       d="m -68.641373,22.400799 c 12.082339,2.65032 20.656902,2.65032 25.723689,0 4.673998,15.211278 2.322945,24.313816 0,33.440795 -8.730464,2.026714 -17.305027,2.026714 -25.723689,0 2.416468,-11.224883 2.416468,-22.371814 0,-33.440795 z"
       style="fill:#552200;stroke-width:1.79723" />
    <ellipse
       style="fill:#000000;stroke-width:1.79723"
       id="ellipse30"
       cx="-58.965755"
       cy="34.578293"
       rx="2.2508228"
       ry="3.6419079" />
    <ellipse
       style="fill:#000000;stroke-width:1.79723"
       id="ellipse31"
       cx="-47.21471"
       cy="33.350571"
       rx="2.2508228"
       ry="3.6419079" />
    <ellipse
       style="fill:#000000;stroke-width:1.79723"
       id="ellipse36"
       cx="-53.470242"
       cy="49.469131"
       rx="5.9339871"
       ry="3.0400724" />
    <path
       id="path36"
       d="m -64.343511,69.191692 c 5.467726,0.88191 10.935452,0.88191 16.403178,0 l 2.976446,4.878064 c -7.341785,1.102388 -14.57333,1.102388 -21.694638,0 z"
       style="fill:#445016;stroke-width:2.44197" />
    <rect
       style="fill:#d38d5f;stroke-width:1.79723"
       id="rect39"
       width="11.409711"
       height="3.5353255"
       x="84.737778"
       y="3.0706613"
       transform="rotate(133.09726)" />
    <path
       id="path49"
       d="m -68.641373,22.400799 c 12.082339,2.65032 20.656902,2.65032 25.723689,0 4.673998,15.211278 2.322945,24.313816 0,33.440795 -8.730464,2.026714 -17.305027,2.026714 -25.723689,0 2.416468,-11.224883 2.416468,-22.371814 0,-33.440795 z"
       style="fill:#552200;stroke-width:1.79723" />
    <ellipse
       style="fill:#000000;stroke-width:1.79723"
       id="ellipse49"
       cx="-58.965755"
       cy="34.578293"
       rx="2.2508228"
       ry="3.6419079" />
    <ellipse
       style="fill:#000000;stroke-width:1.79723"
       id="ellipse50"
       cx="-47.21471"
       cy="33.350571"
       rx="2.2508228"
       ry="3.6419079" />
    <ellipse
       style="fill:#000000;stroke-width:1.79723"
       id="ellipse51"
       cx="-53.470242"
       cy="49.469131"
       rx="5.9339871"
       ry="3.0400724" />
  </g>
</svg>
