<?xml version="1.0" encoding="UTF-8" standalone="no"?>
<!-- Created with Inkscape (http://www.inkscape.org/) -->

<svg
   width="66.145828mm"
   height="66.145836mm"
   viewBox="0 0 66.145828 66.145836"
   version="1.1"
   id="svg1"
   xml:space="preserve"
   xmlns="http://www.w3.org/2000/svg"
   xmlns:svg="http://www.w3.org/2000/svg"><defs
     id="defs1" /><g
     id="layer1"
     transform="translate(184.67916,-452.43751)"><rect
       style="fill:none;stroke:none;stroke-width:0.321"
       id="rect33"
       width="66.145836"
       height="66.145836"
       x="-184.67917"
       y="452.4375" /><g
       id="g17"
       transform="matrix(1.5420871,0,0,1.5420871,-21.743377,276.92421)"><g
         id="g16"
         transform="translate(41.771375,-0.18401487)"><path
           id="path4"
           style="fill:#281000;fill-opacity:1;stroke-width:0.320704"
           d="m -142.02639,113.99943 c 8.08486,2.50355 15.19927,9.29879 26.88055,2.43302 2.91266,13.33308 5.48265,26.00858 2.56999,38.28954 -9.21719,2.80564 -20.83302,2.93716 -29.70754,0.13152 3.59799,-12.01793 3.85499,-27.25798 0.257,-40.85408 z" /><path
           id="path5"
           style="fill:#552200;stroke-width:0.321"
           d="m -139.63754,114.81911 c 8.23753,1.77976 15.77672,5.0681 27.47939,0 2.94935,13.19152 2.94935,25.86256 0,38.01313 -9.33329,2.77585 -18.49308,2.77585 -27.47939,0 3.64331,-11.89033 3.64331,-24.56138 0,-38.01313 z" /><path
           id="path6"
           style="fill:#281000;stroke-width:0.321"
           d="m -134.67384,144.42812 4.55294,6.90199 2.85581,-5.50412 3.41482,5.17622 2.85633,-5.50415 3.41482,5.17622 3.80826,-7.3392 c -6.78252,-1.07859 -13.75018,-0.71424 -20.90298,1.09304 z" /><path
           style="fill:#210d00;fill-opacity:1;stroke:none;stroke-width:0.321"
           id="path9"
           d="m -135.21789,116.01541 c -2e-5,0.32474 0.0264,0.64883 0.0525,0.97233 0.0425,0.35884 0.0683,0.72022 0.1281,1.07689 0.009,0.0542 0.096,0.48691 0.10666,0.54 0.10751,0.58651 0.31031,1.14843 0.51087,1.70801 0.2395,0.64099 0.46704,1.28655 0.65444,1.94482 0.1517,0.55303 0.28729,1.11029 0.39458,1.67364 0.0828,0.46279 0.0999,0.93299 0.10988,1.40188 0.006,0.49866 0.005,0.99737 0.005,1.49605 2.1e-4,0.52994 -0.002,1.05988 -0.003,1.58982 -0.005,0.40075 0.008,0.80196 -0.01,1.20243 -0.006,0.35139 -0.0719,0.69568 -0.1522,1.03653 -0.0836,0.35225 -0.20605,0.69213 -0.33596,1.02943 -0.16175,0.43 -0.34574,0.84987 -0.4979,1.28354 -0.14615,0.39225 -0.26896,0.79204 -0.39371,1.19135 -0.11023,0.33613 -0.17706,0.68274 -0.22849,1.03199 -0.0785,0.36521 -0.17415,0.72491 -0.22592,1.09537 -0.0432,0.36767 -0.0746,0.73582 -0.0925,1.10554 -0.0162,0.45637 -0.0154,0.9131 -0.0153,1.36969 1e-4,0.50426 3e-5,1.00851 -2.7e-4,1.51277 -0.008,0.50574 0.0408,1.00967 0.0772,1.51347 0.025,0.48143 0.0505,0.96266 0.0794,1.4439 0.0318,0.49414 0.0965,0.98523 0.13136,1.47942 0.0212,0.51171 0.0527,1.02254 0.0956,1.53288 0.0424,0.48238 0.0584,0.96639 0.0669,1.45037 0.006,0.42521 0.005,0.85048 0.005,1.27573 0.004,0.39123 0.002,0.78173 -0.0375,1.17122 -0.0416,0.37086 -0.10412,0.74099 -0.18418,1.10552 -0.0779,0.40131 -0.16673,0.79881 -0.27509,1.19309 -0.11542,0.39832 -0.24664,0.79155 -0.4222,1.16758 -0.0762,0.18227 -0.17579,0.35381 -0.24812,0.53751 -0.0397,0.14548 -0.11296,0.27659 -0.15732,0.4205 0,0 0.43311,0.23694 0.43311,0.23694 v 0 c 0.0424,-0.14338 0.11698,-0.27271 0.15447,-0.41773 0.0704,-0.18353 0.17042,-0.35428 0.24157,-0.53784 0.17166,-0.38091 0.29932,-0.7781 0.41986,-1.17775 0.10955,-0.3944 0.20384,-0.79116 0.27982,-1.19339 0.0813,-0.36608 0.14328,-0.73815 0.18668,-1.11055 0.0398,-0.39109 0.0438,-0.78332 0.0385,-1.1762 -2.7e-4,-0.42577 1e-4,-0.85158 -0.006,-1.27733 -0.01,-0.4854 -0.0264,-0.97082 -0.0685,-1.45467 -0.0435,-0.51002 -0.0753,-1.02038 -0.0949,-1.53189 -0.0367,-0.49349 -0.0967,-0.98464 -0.13003,-1.47812 -0.0295,-0.4819 -0.0571,-0.9637 -0.0821,-1.44585 -0.0359,-0.5025 -0.0841,-1.00502 -0.0766,-1.50941 -8e-4,-0.50445 -0.002,-1.00891 -0.001,-1.51336 0.002,-0.45513 0.002,-0.91042 0.019,-1.36529 0.0171,-0.36823 0.0506,-0.73467 0.0921,-1.10092 0.0499,-0.37077 0.1429,-0.73096 0.22436,-1.09556 0.0522,-0.34661 0.11837,-0.69079 0.22545,-1.02524 0.12309,-0.39956 0.24362,-0.79975 0.38841,-1.19225 0.15175,-0.43316 0.33593,-0.85201 0.50194,-1.27965 0.13046,-0.33939 0.25527,-0.68069 0.33896,-1.03517 0.0824,-0.34321 0.15094,-0.69009 0.15705,-1.04433 0.0179,-0.40185 0.001,-0.80443 0.006,-1.20656 -0.001,-0.53058 -0.002,-1.06117 -5.3e-4,-1.59176 0.002,-0.49844 0.006,-0.9969 -0.001,-1.49532 -0.009,-0.47143 -0.0238,-0.94407 -0.10712,-1.40947 -0.10752,-0.56618 -0.24754,-1.12537 -0.40023,-1.68098 -0.18581,-0.65962 -0.41247,-1.30618 -0.6532,-1.94764 -0.19647,-0.55781 -0.39932,-1.11613 -0.5083,-1.69923 -0.0358,-0.17932 -0.0771,-0.35757 -0.10817,-0.53777 -0.0611,-0.35471 -0.0852,-0.71464 -0.12494,-1.07198 -0.0245,-0.32004 -0.0481,-0.64143 -0.0415,-0.9625 z" /><path
           style="fill:#210d00;fill-opacity:1;stroke:none;stroke-width:0.321"
           id="path10"
           d="m -128.52945,117.13301 c -0.0746,0.41004 -0.11632,0.82257 -0.14096,1.23833 -0.0251,0.48457 -0.0336,0.96977 -0.0362,1.45491 -0.005,0.47675 -0.004,0.9527 0.0457,1.42713 0.0567,0.52483 0.13252,1.04728 0.23533,1.56503 0.11206,0.47167 0.23464,0.94022 0.38031,1.40261 0.16254,0.48929 0.29809,0.98675 0.45622,1.47747 0.14415,0.47108 0.31084,0.93472 0.45953,1.40436 0.14577,0.41011 0.252,0.83322 0.34611,1.25779 0.10432,0.424 0.20631,0.84892 0.28333,1.27884 0.0766,0.41722 0.13028,0.83756 0.16407,1.26027 0.034,0.51871 0.037,1.0388 0.0403,1.55842 0.002,0.56304 0.001,1.12609 -2.6e-4,1.68914 -3e-5,0.54747 -0.001,1.09493 1.1e-4,1.6424 0.003,0.66471 0.002,1.32943 0.001,1.99415 0.004,0.64833 -0.1154,1.28645 -0.22037,1.9234 -0.11785,0.67214 -0.25125,1.34169 -0.40163,2.00729 -0.11541,0.52381 -0.26122,1.0401 -0.38821,1.561 -0.11685,0.44925 -0.20922,0.90481 -0.33006,1.3529 -0.11739,0.45512 -0.23314,0.91032 -0.3366,1.36884 -0.0983,0.47205 -0.13372,0.95452 -0.16828,1.43462 -0.0349,0.56017 -0.0383,1.12155 -0.0425,1.68258 -0.004,0.45788 -0.0104,0.91545 0.0136,1.37282 0.0146,0.34872 0.0454,0.69643 0.0881,1.04278 0.0418,0.30799 0.0664,0.61778 0.0791,0.92823 0.0272,0.31041 0.0491,0.6211 0.0619,0.93245 0.008,0.21873 0.01,0.43765 0.0103,0.65652 1.8e-4,0.185 -1.5e-4,0.37001 -7.9e-4,0.55501 -8e-4,0.1825 5.3e-4,0.36499 2.5e-4,0.54749 0.002,0.16851 -0.0296,0.33498 -0.0467,0.50222 -0.009,0.10262 -0.005,0.0518 -0.0113,0.15248 0,0 0.43828,0.22664 0.43828,0.22664 v 0 c 0.006,-0.0997 0.002,-0.0494 0.01,-0.15105 0.0161,-0.16907 0.0496,-0.33708 0.0476,-0.50721 -2.6e-4,-0.18234 0.001,-0.36466 5.3e-4,-0.547 -1.9e-4,-0.18522 1.3e-4,-0.37044 -1.7e-4,-0.55565 -0.001,-0.22002 -0.002,-0.44007 -0.0124,-0.6599 -0.0153,-0.31113 -0.0359,-0.62188 -0.0618,-0.9323 -0.0139,-0.31203 -0.0385,-0.62338 -0.0803,-0.93305 -0.0416,-0.346 -0.077,-0.69272 -0.0917,-1.04103 -0.0262,-0.45756 -0.0238,-0.9153 -0.0215,-1.37354 0.003,-0.55984 0.008,-1.12006 0.0427,-1.679 0.0345,-0.47745 0.0731,-0.95684 0.16813,-1.42666 0.10202,-0.4582 0.21529,-0.91328 0.33561,-1.367 0.12157,-0.44858 0.21243,-0.90522 0.32796,-1.35547 0.12564,-0.5218 0.27281,-1.03832 0.3857,-1.56328 0.14862,-0.66758 0.27553,-1.34004 0.39572,-2.01328 0.11046,-0.63793 0.23756,-1.27694 0.22928,-1.92762 -0.001,-0.66431 -0.002,-1.32862 10e-4,-1.99293 0.001,-0.54722 5.3e-4,-1.09443 0.001,-1.64165 -5.3e-4,-0.56329 7.9e-4,-1.12657 -5.3e-4,-1.68985 -0.002,-0.52008 -0.003,-1.04055 -0.0354,-1.55984 -0.0314,-0.42329 -0.0815,-0.84448 -0.15721,-1.26232 -0.0782,-0.43128 -0.1831,-0.85705 -0.28743,-1.28263 -0.089,-0.42636 -0.19616,-0.8505 -0.34246,-1.26106 -0.14878,-0.47111 -0.31956,-0.93484 -0.46466,-1.40713 -0.15889,-0.48949 -0.2886,-0.98772 -0.4528,-1.47552 -0.14664,-0.46085 -0.26885,-0.92819 -0.38299,-1.39812 -0.10428,-0.51634 -0.18472,-1.03733 -0.23829,-1.56147 -0.048,-0.47243 -0.0537,-0.94616 -0.0447,-1.42081 0.002,-0.48505 0.005,-0.97033 0.0304,-1.45483 0.0264,-0.41141 0.0683,-0.82047 0.15316,-1.22448 z" /><path
           style="fill:#210d00;fill-opacity:1;stroke:none;stroke-width:0.321"
           id="path12"
           d="m -119.60402,117.11347 c 0.0136,0.48986 0.10509,0.97507 0.18133,1.45826 0.14017,0.92839 0.26483,1.85961 0.3785,2.79167 0.13412,1.05603 0.21855,2.11653 0.26672,3.17965 0.0432,0.88311 0.0846,1.76666 0.0805,2.65099 -0.009,0.77199 -0.10201,1.53762 -0.21495,2.30012 -0.10498,0.69293 -0.23858,1.38114 -0.34851,2.07318 -0.0945,0.71657 -0.1867,1.43343 -0.28756,2.14914 -0.0219,0.142 -0.0418,0.28432 -0.0656,0.426 -0.0371,0.20275 -0.11536,0.62615 -0.14966,0.83061 -0.064,0.38174 -0.11091,0.76575 -0.16617,1.1488 -0.10773,0.69594 -0.14968,1.39883 -0.17097,2.10195 -0.0265,0.78579 -0.016,1.57062 0.0518,2.35386 0.0961,0.94667 0.27682,1.88115 0.39547,2.82499 0.0916,0.71753 0.19954,1.43277 0.2881,2.1508 0.0647,0.52362 0.0825,1.05109 0.0916,1.57809 0.005,0.45653 0.004,0.91312 0.002,1.36967 -0.002,0.42785 9e-5,0.85571 2.6e-4,1.28357 0.0153,0.44504 -0.0376,0.88494 -0.11285,1.32234 -0.0819,0.416 -0.17769,0.82919 -0.27292,1.24233 -0.0679,0.40437 -0.16788,0.80062 -0.27782,1.19511 -0.0837,0.35449 -0.22821,0.68555 -0.37008,1.01893 -0.0838,0.18728 -0.15942,0.37784 -0.23857,0.56711 -0.0703,0.11626 -0.12015,0.23839 -0.14664,0.37138 0,0 0.43632,0.23272 0.43632,0.23272 v 0 c 0.0235,-0.13055 0.0722,-0.24933 0.14054,-0.36326 0.0774,-0.19019 0.1518,-0.38133 0.23336,-0.56974 0.13853,-0.33708 0.2843,-0.67041 0.36753,-1.02723 0.10999,-0.39496 0.21411,-0.7908 0.28095,-1.19595 0.0944,-0.41443 0.18604,-0.82961 0.27169,-1.24591 0.0769,-0.43987 0.13221,-0.88263 0.11511,-1.33044 5.3e-4,-0.42733 0.003,-0.85465 0.003,-1.28198 -7.9e-4,-0.45748 5.3e-4,-0.91498 -0.005,-1.37244 -0.01,-0.52927 -0.0264,-1.05914 -0.0936,-1.58483 -0.0928,-0.71999 -0.20271,-1.43745 -0.29998,-2.15674 -0.12204,-0.94249 -0.29977,-1.87687 -0.39536,-2.82276 -0.0648,-0.78069 -0.0747,-1.56238 -0.0469,-2.34536 0.0222,-0.7017 0.0603,-1.40344 0.16684,-2.09825 0.0543,-0.38317 0.0988,-0.76749 0.1618,-1.14939 0.13666,-0.82889 0.007,0.007 0.14912,-0.83197 0.024,-0.14168 0.0445,-0.28395 0.0667,-0.42593 0.10712,-0.71365 0.20086,-1.42925 0.2946,-2.14475 0.10993,-0.693 0.23918,-1.38293 0.34196,-2.07716 0.11374,-0.76436 0.21569,-1.53085 0.21962,-2.30529 1e-4,-0.88649 -0.0411,-1.77232 -0.0883,-2.65742 -0.0488,-1.06429 -0.13769,-2.12557 -0.2665,-3.18333 -0.11136,-0.93033 -0.23225,-1.85994 -0.36615,-2.78724 -0.0711,-0.47627 -0.15901,-0.95657 -0.15939,-1.43909 z" /><path
           style="fill:#210d00;fill-opacity:1;stroke:none;stroke-width:0.321"
           id="path13"
           d="m -115.42697,116.02087 c 0.12751,0.42648 0.30635,0.83457 0.48965,1.23936 0.17065,0.39937 0.35014,0.79633 0.4697,1.21495 0.0711,0.24903 0.1477,0.61183 0.2027,0.85831 0.19286,0.88595 0.27116,1.78906 0.31338,2.69288 0.0258,0.69272 0.0232,1.38604 0.0217,2.07911 0.008,0.63139 -0.01,1.26232 -0.068,1.89109 -0.0585,0.6423 -0.16593,1.2797 -0.27677,1.91482 -0.10625,0.70075 -0.20407,1.40294 -0.29871,2.10538 -0.10114,0.74143 -0.20678,1.48174 -0.27284,2.22728 -0.0464,0.70231 -0.0836,1.40529 -0.0996,2.10899 -0.0129,0.9782 -0.0274,1.95678 -0.0154,2.93505 0.0208,0.73874 0.0252,1.47802 0.0517,2.21657 0.0424,0.62685 0.0862,1.25389 0.15619,1.87832 0.0775,0.5845 0.1628,1.16806 0.23155,1.75368 0.0489,0.43164 0.0583,0.86624 0.0633,1.30019 0.0216,0.45574 0.043,0.91137 0.0545,1.36751 0.009,0.45603 0.0112,0.91216 0.0136,1.36826 -0.005,0.67008 -0.063,1.33771 -0.12516,2.00439 -0.0587,0.67727 -0.12638,1.35388 -0.20756,2.02884 -0.0696,0.48689 -0.0868,0.97867 -0.1247,1.46838 -0.0211,0.28029 -0.0724,0.5573 -0.11648,0.83469 -0.0472,0.22458 -0.12973,0.43834 -0.17533,0.66359 -0.0187,0.17684 -0.0519,0.35142 -0.0782,0.52719 -0.0117,0.0956 -0.007,0.0482 -0.0155,0.14223 0,0 0.43801,0.2281 0.43801,0.2281 v 0 c 0.008,-0.0926 0.003,-0.0459 0.0137,-0.1401 0.0245,-0.17551 0.0587,-0.34943 0.0751,-0.52601 0.0431,-0.22653 0.12454,-0.44117 0.17419,-0.66593 0.0473,-0.27891 0.0909,-0.55953 0.1124,-0.84166 0.0354,-0.49038 0.0474,-0.98286 0.11621,-1.4705 0.0782,-0.67645 0.142,-1.35447 0.20253,-2.03271 0.0637,-0.66674 0.12534,-1.33442 0.13454,-2.00461 0.001,-0.45573 0.004,-0.91153 -0.009,-1.36716 -0.0126,-0.4558 -0.0324,-0.91127 -0.0545,-1.3667 -0.005,-0.43576 -0.0117,-0.87238 -0.0628,-1.30573 -0.0719,-0.58677 -0.16248,-1.17112 -0.23973,-1.75721 -0.0675,-0.62348 -0.11028,-1.24938 -0.15656,-1.87473 -0.0297,-0.74007 -0.0358,-1.48101 -0.0633,-2.22121 -0.0168,-0.97699 -0.004,-1.95429 0.0188,-2.9311 0.0243,-0.70191 0.06,-1.40336 0.10269,-2.10437 0.0631,-0.74542 0.16838,-1.48518 0.27038,-2.2261 0.0933,-0.7014 0.19652,-1.40158 0.30294,-2.10109 0.10951,-0.63652 0.217,-1.27502 0.27859,-1.9181 0.0585,-0.6301 0.0773,-1.26227 0.0697,-1.89506 7e-5,-0.69507 -2.6e-4,-1.3904 -0.0284,-2.08503 -0.0447,-0.90692 -0.12503,-1.81257 -0.31517,-2.70228 -0.0587,-0.27856 -0.11792,-0.58231 -0.19316,-0.8584 -0.11438,-0.41977 -0.28925,-0.81746 -0.45975,-1.21661 -0.18074,-0.39864 -0.35809,-0.80053 -0.47575,-1.22319 z" /><path
           id="path16"
           style="fill:#1a0b00;fill-opacity:1;stroke-width:0.321"
           d="m -122.75781,143.80651 c -3.68334,0.0983 -7.43795,0.61611 -11.06055,1.48828 1.21419,1.8405 2.42839,3.68099 3.64258,5.52149 0.95175,-1.83467 1.90427,-3.66895 2.85547,-5.50391 1.13838,1.72545 2.27737,3.4505 3.41601,5.17578 0.95176,-1.83467 1.90427,-3.66894 2.85547,-5.5039 1.13815,1.72517 2.27603,3.45053 3.41406,5.17578 1.01693,-1.95964 2.03386,-3.91927 3.05079,-5.87891 -2.72982,-0.39578 -5.42019,-0.5399 -8.17383,-0.47461 z" /><ellipse
           style="fill:#281000;fill-opacity:1;stroke:none;stroke-width:0.243399"
           id="ellipse6"
           cx="-117.12587"
           cy="131.0193"
           rx="2.9215062"
           ry="5.9069023" /><path
           id="path8"
           style="fill:#210d00;fill-opacity:1;stroke:none;stroke-width:0.243399"
           d="m -117.50195,125.72852 c -1.42094,0.84841 -1.73744,2.67457 -1.96289,4.1875 -0.12815,2.05163 0.0266,4.36107 1.41315,5.98991 0.53498,0.72453 1.6077,0.5082 2.04402,-0.2081 1.36733,-1.95974 1.44551,-4.53971 1.06431,-6.82674 -0.30701,-1.17816 -0.68895,-2.63744 -1.90474,-3.16199 -0.22188,-0.0821 -0.43169,-0.0323 -0.65385,0.0194 z" /><ellipse
           style="fill:#281000;fill-opacity:1;stroke:none;stroke-width:0.321"
           id="ellipse5"
           cx="-127.94169"
           cy="134.82729"
           rx="5.0420785"
           ry="5.9529061" /><path
           id="path7"
           style="fill:#210d00;fill-opacity:1;stroke:none;stroke-width:0.321"
           d="m -128.80273,129.50586 c -2.55414,0.66573 -3.92194,3.5335 -3.59226,6.01985 0.17863,2.25918 1.8857,4.59467 4.2878,4.70159 2.30218,0.11707 4.13389,-1.94357 4.52593,-4.08198 0.53741,-2.42527 -0.4791,-5.35719 -2.84917,-6.40625 -0.74675,-0.33852 -1.57326,-0.37695 -2.3723,-0.23321 z" /></g></g></g></svg>
